<svg width="400" height="400" viewBox="0 0 400 400" fill="none" xmlns="http://www.w3.org/2000/svg">
<path d="M322.1 268.417C323.04 268.917 323.22 269.087 323.42 269.097C330.84 269.497 338.99 269.257 342.72 277.187C347.11 286.527 346.31 296.707 343.55 306.287C341.79 312.407 336.3 315.337 329.67 315.287C319.52 315.287 309.37 315.287 299.23 315.287H72.8199C59.4199 315.287 54.19 309.987 54.14 296.347C54.14 294.027 54.14 291.697 54.14 289.347C54.14 275.067 59.21 269.807 73.37 269.347C74.21 269.347 75.05 269.207 76.72 269.057C76.84 266.907 77.0599 264.697 77.0699 262.477C77.0699 244.083 77.0699 225.693 77.0699 207.307C77.0699 194.067 78.12 193.047 91.62 193.037C100.07 193.037 108.56 193.467 116.98 192.897C124.08 192.427 128.98 194.577 132.85 200.697C137.097 207.266 141.806 213.525 146.94 219.427C148.69 221.477 152 223.337 154.61 223.367C184.61 223.633 214.61 223.633 244.61 223.367C247.21 223.367 250.5 221.457 252.23 219.367C257.91 212.577 262.69 204.997 268.53 198.367C271.117 195.538 274.634 193.731 278.44 193.277C289.6 192.647 300.83 193.007 312.03 193.057C319.49 193.057 321.93 195.447 321.96 202.927C322.05 222.587 321.96 242.247 322.02 261.927L322.1 268.417ZM92.9199 269.047H306.2V208.277C297.9 208.277 290.1 208.077 282.33 208.437C280.64 208.517 278.65 210.277 277.47 211.787C271.76 219.127 266.58 226.917 260.53 233.947C258.37 236.467 254.28 238.667 251.04 238.697C216.78 239.037 182.517 239.037 148.25 238.697C145.03 238.697 140.94 236.467 138.78 233.967C132.72 226.967 127.52 219.177 121.84 211.807C120.76 210.397 119.09 208.537 117.64 208.487C109.48 208.157 101.3 208.327 92.9199 208.327V269.047ZM69.73 299.597H329.27V285.417H69.73V299.597Z" fill="black"/>
<path d="M76.9799 132.417C74.5799 132.257 73.1399 132.127 71.6999 132.067C59.6999 131.557 54.15 125.787 54.04 113.647C54.04 110.047 53.95 106.457 54.04 102.857C54.29 91.8567 60.04 86.0467 71.04 86.0267C111.04 85.9667 151.04 86.0267 190.96 86.0267H326.73C339.73 86.0267 345.14 91.5067 345.17 104.597C345.17 107.557 345.17 110.517 345.17 113.477C345.08 125.867 339.45 131.567 326.93 131.927C325.68 131.927 324.43 131.927 322.09 131.927V158.647C322.09 177.737 322.09 177.737 302.85 177.737C291.64 177.737 280.42 177.517 269.22 177.907C266.453 178.177 263.892 179.485 262.05 181.567C256.39 188.397 251.15 195.567 245.97 202.797C243.28 206.537 240.16 208.357 235.36 208.317C211.47 208.137 187.56 208.447 163.67 208.007C160.3 207.947 156.14 205.497 153.83 202.857C147.98 196.197 143.21 188.617 137.51 181.857C135.533 179.633 132.783 178.245 129.82 177.977C115.82 177.587 101.9 177.817 87.9399 177.767C79.7399 177.767 77.2199 175.477 77.0599 167.277C76.8199 155.867 76.9799 144.467 76.9799 132.417ZM306.35 132.467H93.0599V162.467C107.39 162.467 121.3 162.607 135.2 162.387C140.13 162.307 143.59 163.877 146.45 167.927C151.57 175.187 156.84 182.357 162.55 189.147C164.537 191.342 167.288 192.694 170.24 192.927C185.67 193.277 201.18 192.257 216.54 193.367C229.19 194.277 238.63 191.427 244.34 179.487C245.41 177.247 247.67 175.577 248.82 173.357C253.47 164.357 260.65 161.527 270.66 162.257C282.38 163.117 294.21 162.457 306.35 162.457V132.467ZM70.15 115.987H329.73V101.897H70.15V115.987Z" fill="black"/>
</svg>
