<svg width="400" height="400" viewBox="0 0 400 400" fill="none" xmlns="http://www.w3.org/2000/svg">
<path d="M327.663 130.865C341.663 137.565 350.873 147.925 354.743 162.775C357.223 172.593 356.47 182.95 352.595 192.306C348.719 201.661 341.929 209.517 333.233 214.705C327.233 218.205 322.913 215.705 322.873 208.755C322.823 199.275 322.793 189.755 322.873 180.305C322.873 178.015 322.233 176.635 320.163 175.585C316.283 173.585 312.533 169.755 308.703 169.725C304.873 169.695 301.113 173.495 297.213 175.415C295.013 176.495 294.293 177.915 294.333 180.415C294.493 189.645 294.333 198.885 294.413 208.115C294.413 211.005 293.953 213.625 291.123 215.115C288.293 216.605 285.853 215.465 283.443 213.935C253.193 194.725 255.033 149.785 286.783 132.695C287.873 132.115 288.983 131.545 289.333 131.365C287.663 126.225 286.103 121.365 284.483 116.495C284.253 115.794 283.847 115.164 283.303 114.665C267.443 100.755 251.553 86.8754 235.473 72.8254L209.843 94.2454C203.043 99.9354 196.293 105.705 189.403 111.245C187.593 112.705 187.803 113.885 188.213 115.945C189.483 122.355 193.443 125.315 199.463 127.135C206.463 129.245 206.713 130.135 206.713 137.355C206.713 143.595 206.593 149.835 206.713 156.075C206.813 160.075 205.313 163.075 201.333 163.935C193.863 165.595 190.333 170.125 187.333 177.235C184.433 184.155 183.993 189.625 187.843 195.815C190.053 199.355 189.313 202.565 186.203 205.505C181.123 210.315 176.203 215.305 171.333 220.315C168.713 223.005 165.773 223.815 162.573 221.815C156.043 217.745 149.693 216.895 143.023 221.605C141.089 222.766 138.95 223.543 136.723 223.895C133.663 224.545 133.413 226.225 134.113 228.825C138.563 245.305 142.893 261.825 147.413 278.275C147.622 278.895 147.973 279.458 148.439 279.918C148.904 280.378 149.47 280.723 150.093 280.925C163.423 282.305 167.753 286.725 168.483 300.065C168.544 300.407 168.638 300.742 168.763 301.065H194.653V296.835C194.653 279.869 194.653 262.895 194.653 245.915C194.653 240.005 196.553 238.145 202.543 238.145C222.423 238.145 242.303 238.145 262.183 238.145C268.063 238.145 269.933 240.045 269.943 246.055C269.943 262.902 269.943 279.749 269.943 296.595V301.005H283.943V297.005C283.943 280.152 283.943 263.302 283.943 246.455C283.943 239.935 285.673 238.165 292.063 238.155C311.816 238.155 331.569 238.155 351.323 238.155C357.323 238.155 359.213 239.985 359.223 245.915C359.223 263.915 359.223 281.889 359.223 299.835C359.223 301.175 359.053 302.525 358.943 304.015C370.303 308.715 378.723 316.595 383.243 328.325C393.383 354.655 374.643 383.425 346.423 384.875C345.053 384.945 343.673 384.955 342.303 384.955C247.403 384.955 152.506 384.955 57.6127 384.955C38.6127 384.955 23.1527 374.755 16.8327 358.175C13.0502 348.479 13.056 337.714 16.8488 328.022C20.6417 318.329 27.9437 310.419 37.3027 305.865C39.9327 304.565 41.1327 303.275 40.8327 300.295C39.7327 289.145 46.6127 281.195 58.8327 280.895C58.8327 278.615 58.9427 276.305 58.8327 274.015C57.9127 258.015 56.9927 242.115 55.8327 226.185C55.5981 224.308 54.7673 222.556 53.4627 221.185C48.0127 215.525 42.3427 210.065 36.7827 204.485C34.6927 202.395 33.9527 199.715 35.5327 197.315C40.4027 189.885 39.3427 183.105 35.7827 175.215C33.2627 169.645 30.3027 166.525 24.7827 164.735C17.5727 162.405 17.2927 161.595 17.2927 153.885C17.2927 147.645 17.2927 141.405 17.2927 135.165C17.2927 131.465 18.7127 128.735 22.4227 127.905C29.9927 126.225 33.7627 121.675 36.7527 114.385C39.5427 107.575 39.8027 102.285 36.3127 96.0754C33.6627 91.3654 34.3127 89.7954 38.2227 85.8754C43.0027 81.1154 47.8427 76.4154 52.5227 71.5554C55.2527 68.7054 58.3127 67.9154 61.5927 69.9754C68.0427 73.9754 73.7827 73.5754 80.9527 70.5254C87.8327 67.6054 92.1827 64.1754 93.7727 56.9754C94.6827 52.8654 97.5527 51.2254 101.773 51.3454C108.773 51.5454 115.773 51.4854 122.773 51.3454C126.563 51.2854 128.933 52.8854 130.113 56.4254C130.663 58.0854 131.523 59.6554 131.913 61.3454C132.913 65.5154 135.283 67.8054 139.533 68.8554C142.013 69.4754 143.863 69.5754 146.133 68.2154C167.783 55.2154 189.503 42.4554 211.133 29.5554C212.527 28.7561 213.767 27.7128 214.793 26.4754C222.373 16.9254 233.633 12.8054 244.773 16.1454C256.593 19.6754 263.213 27.8854 265.223 39.9854C265.477 41.5311 266.152 42.977 267.173 44.1654C280.573 58.6588 294.043 73.0821 307.583 87.4354C308.809 88.768 310.403 89.7075 312.163 90.1354C331.663 93.9754 339.643 113.275 328.393 129.645C328.183 129.955 328.013 130.285 327.663 130.865ZM59.7327 82.2454C59.3127 82.3554 58.8627 82.3454 58.6227 82.5554C57.2427 83.8254 55.9027 85.1254 54.6227 86.4454C47.9827 93.0454 47.8427 93.1154 51.7627 101.445C53.3927 105.065 53.0127 107.965 51.2127 111.345C48.8627 115.715 46.4327 120.255 45.3127 125.015C43.9027 131.015 40.8227 134.175 35.0427 135.895C29.2627 137.615 29.2427 138.035 29.2427 144.135C29.2427 153.715 29.1827 153.855 38.0727 157.135C41.6427 158.435 43.3627 160.685 44.4927 164.135C46.1227 169.215 47.8227 174.405 50.4927 178.985C53.1627 183.565 53.3027 187.535 50.8927 192.245C47.6627 198.555 47.8927 198.695 52.9527 203.695C59.1227 209.855 59.1927 210.015 67.0927 206.195C70.8727 204.365 73.9927 204.635 77.6327 206.645C81.9727 209.045 86.5527 211.375 91.3227 212.525C96.9827 213.885 100.123 216.735 101.823 222.225C103.823 228.555 104.103 228.455 110.823 228.455C119.823 228.455 119.963 228.515 122.963 220.185C124.373 216.245 126.773 214.245 130.803 213.115C135.644 211.903 140.294 210.029 144.623 207.545C149.623 204.545 153.853 204.395 158.913 207.045C164.763 210.105 164.913 209.835 169.663 205.045C175.993 198.715 176.113 198.655 172.243 190.315C170.603 186.785 170.823 183.885 172.693 180.465C175.133 176.015 177.573 171.345 178.753 166.465C180.113 160.795 182.993 157.705 188.463 155.985C194.813 153.985 194.713 153.675 194.713 146.985C194.713 138.065 194.773 137.905 186.413 134.885C182.463 133.465 180.473 131.085 179.323 127.075C178.033 122.134 176.1 117.383 173.573 112.945C170.693 108.195 170.663 104.165 173.113 99.3654C176.263 93.1854 176.013 93.0554 171.253 88.2954C164.933 81.9754 164.863 81.8354 156.763 85.6054C155.165 86.427 153.381 86.8193 151.586 86.7439C149.791 86.6685 148.046 86.128 146.523 85.1754C142.063 82.7554 137.373 80.3654 132.523 79.1754C126.993 77.8354 123.973 75.0154 122.263 69.7154C120.163 63.1754 119.873 63.2654 112.963 63.2654C104.173 63.2654 103.963 63.2054 101.093 71.4454C99.6427 75.5754 97.0927 77.4454 92.9927 78.7554C87.445 80.6108 82.0434 82.8771 76.8327 85.5354C73.7427 87.0554 71.0327 87.4154 67.9627 85.8754C65.2327 84.5554 62.4527 83.4454 59.7327 82.2454ZM200.013 372.965H290.393C308.393 372.965 326.393 373.125 344.393 372.965C349.126 372.946 353.787 371.797 357.987 369.615C362.188 367.433 365.807 364.28 368.545 360.419C371.283 356.558 373.06 352.099 373.729 347.413C374.399 342.727 373.94 337.949 372.393 333.475C367.953 320.705 356.703 313.385 341.393 313.385C247.139 313.385 152.889 313.385 58.6427 313.385C56.5179 313.387 54.3948 313.504 52.2827 313.735C45.2166 314.553 38.6786 317.879 33.8577 323.109C29.0367 328.34 26.2529 335.126 26.0127 342.235C25.6027 359.465 39.0127 372.925 56.7827 372.945C104.509 373.025 152.253 373.032 200.013 372.965ZM135.573 280.885C131.953 267.235 128.393 253.885 124.833 240.435H102.303C96.7127 240.435 95.5527 239.605 93.4827 234.275C92.4827 231.725 91.6027 229.125 90.4827 226.645C90.0438 225.662 89.2863 224.855 88.3327 224.355C83.3327 222.145 78.2427 220.105 73.1827 218.025C72.5607 217.718 71.8671 217.584 71.1753 217.638C70.4834 217.692 69.8191 217.932 69.2525 218.332C68.6859 218.733 68.2381 219.279 67.9564 219.914C67.6748 220.548 67.5699 221.246 67.6527 221.935C68.5593 237.489 69.466 253.042 70.3727 268.595C70.6127 272.665 70.9627 276.725 71.2727 280.885H135.573ZM296.143 250.285V301.175H346.913V250.345H338.143C338.143 256.635 338.143 262.715 338.143 268.795C338.143 273.745 336.083 275.795 331.073 275.865C325.073 275.945 319.073 275.865 313.073 275.865C306.833 275.865 305.003 274.015 304.993 267.865C304.993 262.055 304.993 256.235 304.993 250.255L296.143 250.285ZM257.683 301.145V250.445H248.873C248.873 256.755 248.873 262.735 248.873 268.715C248.873 273.715 246.873 275.785 241.873 275.855C235.633 275.945 229.383 275.935 223.133 275.855C217.703 275.805 215.773 273.785 215.753 268.305C215.753 262.355 215.753 256.405 215.753 250.355H206.903V301.135L257.683 301.145ZM334.873 197.595C348.453 184.125 346.683 160.295 331.873 147.595C328.173 144.455 323.865 142.111 319.218 140.712C314.57 139.312 309.685 138.887 304.866 139.462C300.047 140.038 295.398 141.601 291.211 144.056C287.024 146.51 283.389 149.802 280.533 153.725C269.073 169.295 274.403 190.175 282.483 196.075C282.483 188.995 282.573 182.005 282.433 175.025C282.326 173.529 282.676 172.036 283.434 170.742C284.193 169.448 285.325 168.414 286.683 167.775C292.569 164.495 298.406 161.122 304.193 157.655C305.475 156.76 306.999 156.275 308.563 156.265C310.127 156.254 311.658 156.718 312.953 157.595C318.293 160.825 323.643 164.065 329.183 166.915C333.383 169.075 335.183 172.035 334.973 176.755C334.653 183.425 334.863 190.155 334.863 197.595H334.873ZM209.353 44.5954L169.013 68.5654C174.183 73.9154 179.013 78.9254 183.883 83.9654C185.513 85.6654 187.653 87.2354 188.443 89.2954C189.233 91.3554 188.613 93.9354 188.613 96.3854L223.393 67.2854C215.153 61.9354 210.463 54.7854 209.343 44.6354L209.353 44.5954ZM53.2027 301.065H156.203C156.673 294.275 155.583 293.065 149.413 293.065H59.5727C53.3227 293.065 52.0127 294.675 53.2027 301.065ZM295.543 92.2054L262.663 56.9954L249.563 69.1254L268.303 85.5154L286.443 101.405L295.543 92.2054ZM253.283 43.0654C253.295 39.9104 252.37 36.8228 250.627 34.193C248.884 31.5633 246.4 29.5096 243.49 28.2917C240.579 27.0738 237.373 26.7465 234.276 27.3511C231.18 27.9557 228.332 29.4651 226.093 31.6883C223.855 33.9115 222.326 36.7488 221.7 39.8411C221.074 42.9334 221.379 46.1419 222.577 49.0607C223.775 51.9795 225.811 54.4776 228.429 56.2388C231.046 58.0001 234.128 58.9455 237.283 58.9554C241.507 58.9555 245.56 57.2849 248.558 54.3081C251.555 51.3313 253.254 47.2898 253.283 43.0654ZM296.503 114.605C296.522 117.08 297.275 119.494 298.664 121.541C300.054 123.589 302.019 125.18 304.311 126.112C306.604 127.044 309.121 127.277 311.545 126.781C313.97 126.284 316.193 125.081 317.935 123.323C319.676 121.565 320.858 119.33 321.331 116.901C321.804 114.472 321.548 111.957 320.593 109.674C319.639 107.39 318.03 105.441 315.969 104.071C313.908 102.701 311.487 101.972 309.013 101.975C307.358 101.981 305.72 102.313 304.194 102.954C302.669 103.594 301.284 104.53 300.122 105.708C298.959 106.885 298.041 108.281 297.42 109.815C296.798 111.349 296.487 112.991 296.503 114.645V114.605ZM236.693 250.415H227.953V263.645H236.693V250.415ZM317.183 250.245V263.695H325.863V250.245H317.183Z" fill="black"/>
<path d="M112.013 193.675C102.572 193.673 93.3442 190.874 85.4935 185.632C77.6428 180.389 71.5216 172.937 67.9025 164.218C64.2835 155.499 63.3291 145.903 65.1597 136.642C66.9903 127.381 71.5239 118.87 78.188 112.183C84.8522 105.497 93.3481 100.935 102.603 99.0734C111.858 97.2119 121.457 98.1342 130.188 101.724C138.919 105.314 146.391 111.41 151.66 119.243C156.929 127.077 159.759 136.295 159.793 145.735C159.809 158.427 154.785 170.606 145.826 179.595C136.866 188.585 124.704 193.649 112.013 193.675ZM147.763 146.335C147.879 136.927 144.283 127.851 137.754 121.075C131.225 114.299 122.289 110.369 112.883 110.135C93.0127 109.815 76.5326 125.355 76.1926 144.865C76.0541 149.62 76.8655 154.354 78.5792 158.791C80.2928 163.228 82.8745 167.278 86.1729 170.705C89.4713 174.132 93.4202 176.867 97.7884 178.749C102.157 180.631 106.856 181.622 111.613 181.665C131.163 182.065 147.433 166.125 147.773 146.335H147.763Z" fill="black"/>
<path d="M151.813 367.985C146.893 367.953 142.094 366.461 138.024 363.698C133.953 360.935 130.795 357.026 128.949 352.465C127.103 347.905 126.653 342.9 127.656 338.083C128.659 333.267 131.069 328.857 134.581 325.412C138.093 321.967 142.55 319.643 147.384 318.734C152.219 317.825 157.215 318.372 161.739 320.305C166.262 322.239 170.11 325.473 172.793 329.596C175.477 333.719 176.876 338.546 176.813 343.465C176.791 346.72 176.125 349.937 174.855 352.934C173.585 355.93 171.735 358.646 169.412 360.924C167.088 363.203 164.337 365 161.317 366.212C158.297 367.424 155.067 368.026 151.813 367.985ZM164.813 343.335C164.884 339.925 163.598 336.625 161.237 334.163C158.876 331.701 155.633 330.277 152.223 330.205C148.812 330.134 145.513 331.42 143.05 333.781C140.588 336.142 139.164 339.385 139.093 342.795C139.057 344.484 139.355 346.164 139.968 347.737C140.582 349.311 141.499 350.749 142.668 351.968C143.837 353.187 145.235 354.164 146.782 354.843C148.329 355.522 149.994 355.89 151.683 355.925C153.371 355.961 155.051 355.663 156.625 355.05C158.198 354.436 159.636 353.519 160.855 352.35C162.074 351.181 163.051 349.783 163.73 348.236C164.409 346.69 164.777 345.024 164.813 343.335Z" fill="black"/>
<path d="M344.183 367.975C339.28 367.962 334.49 366.497 330.418 363.766C326.346 361.035 323.173 357.16 321.299 352.63C319.425 348.099 318.934 343.115 319.887 338.305C320.841 333.496 323.196 329.076 326.657 325.603C330.118 322.129 334.529 319.758 339.335 318.787C344.141 317.817 349.127 318.29 353.664 320.147C358.202 322.005 362.088 325.164 364.834 329.226C367.579 333.289 369.061 338.072 369.093 342.975C369.114 346.257 368.485 349.51 367.241 352.547C365.998 355.583 364.165 358.344 361.849 360.668C359.533 362.993 356.779 364.835 353.747 366.09C350.715 367.344 347.464 367.985 344.183 367.975ZM344.183 355.975C345.9 356.011 347.608 355.701 349.204 355.066C350.8 354.43 352.253 353.481 353.476 352.274C354.699 351.068 355.669 349.629 356.326 348.041C356.984 346.454 357.317 344.751 357.306 343.033C357.294 341.315 356.939 339.617 356.26 338.038C355.581 336.46 354.593 335.033 353.354 333.843C352.115 332.653 350.65 331.723 349.046 331.109C347.441 330.494 345.73 330.208 344.013 330.265C340.605 330.318 337.356 331.713 334.971 334.147C332.585 336.581 331.256 339.858 331.273 343.265C331.283 344.95 331.626 346.616 332.281 348.169C332.936 349.721 333.892 351.128 335.092 352.311C336.292 353.493 337.713 354.427 339.275 355.06C340.837 355.692 342.508 356.01 344.193 355.995L344.183 355.975Z" fill="black"/>
<path d="M55.6726 367.985C50.7532 367.953 45.954 366.461 41.8836 363.698C37.8132 360.935 34.6549 357.026 32.8092 352.465C30.9635 347.905 30.5134 342.9 31.5161 338.083C32.5188 333.267 34.929 328.857 38.4412 325.412C41.9535 321.967 46.4095 319.643 51.2444 318.734C56.0792 317.825 61.0752 318.372 65.5987 320.305C70.1223 322.239 73.9698 325.473 76.6535 329.596C79.3371 333.719 80.7359 338.546 80.6726 343.465C80.6426 346.717 79.9719 349.932 78.699 352.924C77.4261 355.917 75.5759 358.629 73.2541 360.906C70.9324 363.184 68.1846 364.981 65.1679 366.196C62.1511 367.41 58.9246 368.018 55.6726 367.985ZM68.6726 343.215C68.6549 339.819 67.3088 336.565 64.9223 334.148C62.5357 331.732 59.2984 330.345 55.9026 330.285C53.3601 330.276 50.8716 331.02 48.7518 332.424C46.632 333.828 44.9759 335.828 43.9929 338.173C43.0098 340.518 42.744 343.102 43.2289 345.598C43.7138 348.094 44.9277 350.39 46.7171 352.196C48.5066 354.002 50.7914 355.238 53.2827 355.746C55.774 356.254 58.3601 356.012 60.714 355.051C63.068 354.09 65.0842 352.453 66.5079 350.346C67.9315 348.239 68.6988 345.758 68.7126 343.215H68.6726Z" fill="black"/>
<path d="M247.913 367.985C242.992 367.953 238.192 366.46 234.121 363.696C230.05 360.931 226.891 357.02 225.047 352.458C223.202 347.896 222.754 342.889 223.759 338.072C224.764 333.255 227.177 328.845 230.693 325.401C234.208 321.958 238.667 319.636 243.503 318.73C248.34 317.825 253.337 318.376 257.86 320.314C262.383 322.253 266.228 325.491 268.908 329.618C271.588 333.745 272.982 338.575 272.913 343.495C272.881 346.746 272.21 349.958 270.936 352.948C269.662 355.938 267.811 358.648 265.489 360.923C263.168 363.197 260.42 364.992 257.404 366.204C254.388 367.416 251.163 368.021 247.913 367.985ZM248.153 330.285C245.605 330.266 243.109 331.003 240.981 332.404C238.853 333.805 237.189 335.806 236.201 338.154C235.212 340.502 234.943 343.091 235.428 345.592C235.913 348.094 237.129 350.394 238.924 352.203C240.718 354.011 243.009 355.246 245.507 355.75C248.004 356.255 250.595 356.006 252.951 355.036C255.306 354.065 257.321 352.417 258.738 350.3C260.156 348.183 260.913 345.693 260.913 343.145C260.921 341.463 260.597 339.795 259.959 338.238C259.322 336.681 258.384 335.264 257.199 334.07C256.014 332.875 254.605 331.926 253.053 331.277C251.5 330.628 249.835 330.291 248.153 330.285Z" fill="black"/>
<path d="M296.283 318.295C300.653 318.295 305.023 318.295 309.393 318.295C313.573 318.345 316.153 320.575 316.243 324.095C316.333 327.615 313.603 330.205 309.303 330.235C300.429 330.295 291.566 330.295 282.713 330.235C278.713 330.235 275.983 327.635 276.023 324.235C276.063 320.835 278.723 318.385 282.803 318.335C287.293 318.255 291.793 318.295 296.283 318.295Z" fill="black"/>
<path d="M104.013 330.275C99.5227 330.275 95.0126 330.335 90.5326 330.275C86.4126 330.205 83.8026 327.815 83.7826 324.275C83.7626 320.735 86.3427 318.275 90.4527 318.275C99.446 318.215 108.446 318.215 117.453 318.275C121.303 318.275 123.893 320.655 124.043 323.995C124.193 327.335 121.483 330.115 117.523 330.205C113.013 330.355 108.473 330.275 104.013 330.275Z" fill="black"/>
<path d="M199.863 367.985C195.373 367.985 190.863 368.065 186.393 367.985C182.483 367.905 179.953 365.575 179.863 362.235C179.848 361.419 180.001 360.609 180.311 359.854C180.62 359.099 181.081 358.415 181.664 357.844C182.247 357.273 182.941 356.827 183.702 356.533C184.464 356.239 185.277 356.104 186.093 356.135C195.326 355.962 204.559 355.962 213.793 356.135C217.623 356.195 220.163 358.865 220.143 362.135C220.143 365.595 217.493 367.935 213.343 368.005C208.853 368.065 204.353 367.995 199.863 367.985Z" fill="black"/>
<path d="M200.133 318.295C204.623 318.295 209.133 318.235 213.613 318.295C217.453 318.365 220.033 320.745 220.133 324.085C220.233 327.425 217.503 330.185 213.533 330.225C204.539 330.312 195.539 330.312 186.533 330.225C182.533 330.225 179.793 327.625 179.823 324.225C179.853 320.825 182.523 318.375 186.603 318.325C191.143 318.255 195.633 318.295 200.133 318.295Z" fill="black"/>
<path d="M103.723 367.985C99.2326 367.985 94.7226 368.065 90.2526 367.985C86.3426 367.905 83.8326 365.595 83.7526 362.235C83.6726 358.875 86.1326 356.235 89.9526 356.135C99.186 355.962 108.416 355.962 117.643 356.135C121.503 356.205 124.013 358.845 123.993 362.135C123.993 365.605 121.363 367.935 117.203 368.005C112.713 368.065 108.213 367.995 103.723 367.985Z" fill="black"/>
<path d="M295.883 367.975C291.383 367.975 286.883 368.065 282.403 367.975C278.523 367.875 276.013 365.465 276.003 362.095C275.994 361.308 276.144 360.526 276.444 359.797C276.743 359.068 277.185 358.407 277.745 357.852C278.304 357.297 278.969 356.86 279.701 356.567C280.432 356.274 281.215 356.131 282.003 356.145C291.483 355.972 300.963 355.972 310.443 356.145C311.229 356.139 312.009 356.293 312.734 356.599C313.458 356.904 314.113 357.354 314.658 357.922C315.203 358.489 315.626 359.161 315.902 359.898C316.178 360.635 316.301 361.42 316.263 362.205C316.163 365.425 313.743 367.815 310.113 367.915C305.363 368.065 300.623 367.975 295.883 367.975Z" fill="black"/>
<path d="M237.213 51.1354C236.155 51.1355 235.108 50.9259 234.133 50.5189C233.157 50.1119 232.271 49.5154 231.527 48.7641C230.783 48.0127 230.196 47.1213 229.798 46.1415C229.401 45.1616 229.202 44.1127 229.213 43.0554C229.195 41.9637 229.398 40.8797 229.808 39.8681C230.219 38.8565 230.83 37.9382 231.604 37.168C232.378 36.3979 233.299 35.7917 234.312 35.3857C235.326 34.9798 236.411 34.7824 237.503 34.8054C239.641 34.8733 241.672 35.7543 243.183 37.2688C244.694 38.7833 245.57 40.8171 245.633 42.9554C245.626 44.0482 245.402 45.1287 244.974 46.134C244.546 47.1393 243.921 48.0492 243.138 48.8106C242.354 49.5721 241.426 50.1698 240.409 50.569C239.392 50.9681 238.305 51.1607 237.213 51.1354Z" fill="black"/>
</svg>
