<svg width="400" height="400" viewBox="0 0 400 400" fill="none" xmlns="http://www.w3.org/2000/svg">
<path d="M365.57 104.759C369.72 104.759 373.92 104.759 378.13 104.759C383.28 104.759 385.43 106.909 385.44 112.049C385.44 126.549 385.44 141.049 385.44 155.559V377.629C385.44 385.329 383.91 386.889 376.33 386.889H64.19C34.61 386.889 14.1 366.309 14.1 336.649C14.1 263.649 14.2 190.649 14 117.589C14 103.019 17.18 89.8989 27.11 78.4389C26.11 77.4389 25.25 76.4389 24.34 75.4989C10.58 60.8889 10.6 39.0389 24.34 25.1589C38.08 11.2789 60.34 10.9889 74.8 25.1589C92.71 42.7489 110.31 60.6589 128.05 78.4189C136.16 86.5589 144.24 94.7289 152.45 102.769C153.551 103.865 155.002 104.538 156.55 104.669C179.01 104.789 201.47 104.749 223.92 104.739C224.49 104.709 225.058 104.642 225.62 104.539C219.62 71.7189 228.79 44.5889 256.97 26.2889C282.27 9.8489 309.27 9.8989 334.52 26.4689C362.51 44.8189 371.6 71.8589 365.57 104.759ZM110.8 162.009L109.93 162.329V335.459C110.012 336.833 109.979 338.211 109.83 339.579C109.26 342.809 107.26 344.779 103.96 344.789C100.66 344.799 98.68 342.849 98.04 339.629C97.9297 338.76 97.8796 337.885 97.89 337.009C97.4012 327.741 93.3569 319.019 86.5991 312.658C79.8412 306.297 70.8904 302.787 61.61 302.859C42.61 303.139 26.36 319.429 26.08 338.439C25.79 358.799 42.08 374.859 63.14 374.869C165.327 374.869 267.513 374.869 369.7 374.869C370.9 374.869 372.09 374.759 373.17 374.709V116.769C369.51 116.769 366.17 116.689 362.78 116.829C362.321 116.851 361.871 116.968 361.458 117.171C361.045 117.374 360.678 117.659 360.38 118.009C355.91 124.769 351.38 131.509 347.2 138.429C340.841 148.832 337.497 160.797 337.54 172.989C337.54 177.119 337.54 181.239 337.54 185.369C337.54 198.609 332.73 204.529 319.87 207.129C317.22 222.269 308.46 230.819 295.59 230.809C282.72 230.799 274.08 222.329 271.32 207.099C258.53 204.609 253.68 198.639 253.68 185.339V174.089C253.759 158.847 248.818 144.003 239.62 131.849C236.722 127.942 234.115 123.828 231.82 119.539C230.61 117.279 229.28 116.709 226.9 116.719C208.06 116.809 189.22 116.769 170.38 116.779C169.38 116.779 168.28 116.889 166.52 116.999C172.83 123.309 178.72 128.999 184.38 134.999C186.01 136.686 187.243 138.715 187.99 140.939C193.77 159.789 199.36 178.699 205.07 197.569C205.88 200.249 206.15 202.749 204.07 204.919C201.99 207.089 199.28 206.999 196.46 206.139C177.75 200.449 158.99 194.889 140.31 189.139C137.965 188.388 135.823 187.108 134.05 185.399C126.19 177.659 118.53 169.779 110.8 162.009ZM97.8 306.759C97.86 305.359 97.93 304.639 97.93 303.919C97.93 253.299 97.8967 202.676 97.83 152.049C97.6771 150.142 96.8512 148.352 95.5 146.999C76.5267 127.819 57.4934 108.709 38.4 89.6689C37.54 88.8189 36.62 88.0189 35.58 87.0589C29.257 94.3986 25.8637 103.813 26.05 113.499C26.05 176.746 26.05 239.996 26.05 303.249C26.05 304.249 26.19 305.339 26.29 306.669C47.63 284.869 78.68 286.519 97.82 306.719L97.8 306.759ZM325.3 170.669C325.79 166.779 326.12 163.289 326.68 159.839C329.03 145.429 335.68 133.099 344.3 121.449C359.3 101.139 359.2 73.0389 344.69 52.2589C340.128 45.7969 334.333 40.3019 327.637 36.0906C320.942 31.8793 313.479 29.0352 305.679 27.7221C297.878 26.409 289.896 26.653 282.19 28.44C274.485 30.2271 267.21 33.5217 260.784 38.1341C254.358 42.7464 248.909 48.5852 244.75 55.3137C240.592 62.0422 237.806 69.5273 236.555 77.3375C235.303 85.1477 235.61 93.1284 237.458 100.819C239.305 108.51 242.657 115.76 247.32 122.149C252.88 129.759 258.17 137.529 260.91 146.569C263.27 154.389 264.69 162.489 266.55 170.569H277.43V134.779C275.79 134.779 274.32 134.779 272.86 134.779C261.7 134.699 253.61 127.029 253.68 116.629C253.725 111.885 255.641 107.35 259.012 104.011C262.383 100.672 266.935 98.7987 271.68 98.7989C282.04 98.7989 289.54 106.919 289.62 118.189C289.62 119.639 289.62 121.089 289.62 122.499H301.62C301.62 120.219 301.56 118.219 301.62 116.229C301.735 112.731 302.87 109.343 304.886 106.482C306.902 103.622 309.711 101.413 312.967 100.129C316.222 98.8447 319.782 98.5406 323.209 99.2543C326.635 99.968 329.778 101.668 332.25 104.146C334.722 106.623 336.415 109.769 337.121 113.197C337.828 116.625 337.516 120.184 336.224 123.437C334.933 126.69 332.718 129.494 329.853 131.504C326.988 133.514 323.598 134.642 320.1 134.749C318.02 134.839 315.94 134.749 313.81 134.749V170.629L325.3 170.669ZM76.84 44.3989C73.19 40.6689 69.46 36.4889 65.34 32.7289C61.0388 28.8415 55.4476 26.6893 49.65 26.6893C43.8524 26.6893 38.2612 28.8415 33.96 32.7289C24.96 40.7289 23.24 54.3089 30.5 63.9289C34.36 69.0489 39.26 73.3789 43.5 77.8589L76.84 44.3989ZM166.09 134.609L103.95 72.3489L92.79 83.3489L151.79 142.429C151.29 131.539 160.54 135.769 166.09 134.609ZM142.22 152.689L83.02 93.2989L71.75 104.529C92.3567 125.196 113.143 146.026 134.11 167.019C134.11 163.919 133.61 160.489 134.23 157.279C135.05 153.009 138.81 152.609 142.22 152.689ZM265.68 182.929C265.68 185.129 265.58 186.989 265.68 188.839C265.91 192.379 268.1 194.729 271.68 194.749C287.62 194.836 303.56 194.836 319.5 194.749C323.06 194.749 325.27 192.399 325.5 188.879C325.63 186.939 325.5 184.979 325.5 182.879L265.68 182.929ZM163.84 146.789C163.84 150.419 163.84 153.529 163.84 156.649C163.84 162.819 161.92 164.759 155.84 164.789H146.04V178.309C149.039 179.096 151.996 180.034 154.9 181.119C159.29 182.989 162.73 182.689 165.76 178.489C167.71 175.789 170.48 173.699 172.82 171.269C175.82 168.139 180.39 165.329 181.25 161.669C182.11 158.009 179.25 153.399 178.05 149.219C177.98 148.979 178.05 148.629 177.85 148.509C177.07 147.899 176.27 146.899 175.43 146.859C171.74 146.679 168.02 146.789 163.84 146.789ZM86.34 53.9289C75.24 65.0089 64.24 76.0089 53.51 86.7289L61.95 95.0089C72.71 84.2089 83.67 73.1889 94.7 62.1289L86.34 53.9289ZM301.43 135.009H289.86V170.539H301.43V135.009ZM307.43 207.059H283.85C283.63 214.199 290.4 218.899 295.65 218.859C302.2 218.789 307.85 212.859 307.39 207.009L307.43 207.059ZM277.65 122.749C277.65 120.369 277.78 118.389 277.65 116.429C277.61 115.647 277.416 114.881 277.079 114.175C276.742 113.468 276.268 112.835 275.686 112.313C275.103 111.79 274.422 111.389 273.683 111.13C272.944 110.872 272.161 110.763 271.38 110.809C269.938 110.911 268.58 111.523 267.55 112.537C266.52 113.551 265.885 114.899 265.76 116.339C265.7 117.119 265.795 117.903 266.038 118.646C266.282 119.389 266.67 120.076 267.18 120.669C267.69 121.262 268.312 121.748 269.011 122.1C269.709 122.452 270.47 122.662 271.25 122.719C273.14 122.879 275.13 122.729 277.61 122.729L277.65 122.749ZM313.65 122.749C315.888 122.876 318.132 122.876 320.37 122.749C321.875 122.568 323.252 121.812 324.213 120.64C325.175 119.468 325.647 117.97 325.53 116.459C325.415 115.018 324.79 113.666 323.767 112.645C322.745 111.624 321.391 111.001 319.95 110.889C318.44 110.786 316.948 111.269 315.784 112.238C314.62 113.206 313.874 114.585 313.7 116.089C313.562 118.29 313.542 120.496 313.64 122.699L313.65 122.749ZM186.22 176.439L175.41 187.229L190.8 191.769C189.09 186.009 187.6 181.009 186.22 176.439Z" fill="black"/>
<path d="M211.75 348.239C211.75 350.989 211.83 353.729 211.75 356.469C211.6 360.469 209.4 362.779 205.43 362.839C197.697 362.952 189.963 362.952 182.23 362.839C178.23 362.789 176.01 360.499 175.86 356.529C175.76 353.789 175.86 351.039 175.86 348.289C175.351 348.087 174.853 347.857 174.37 347.599C168.89 344.149 164.27 343.989 160.01 349.949C157.76 353.089 154.01 352.689 151.16 349.899C145.633 344.479 140.167 338.996 134.76 333.449C132.13 330.729 131.76 326.989 134.76 324.859C140.76 320.529 140.65 315.759 137.15 310.159C136.935 309.734 136.744 309.296 136.58 308.849C133.96 308.849 131.23 308.919 128.5 308.849C124.32 308.719 122.05 306.489 122.01 302.279C121.923 294.652 121.923 287.026 122.01 279.399C122.01 275.199 124.34 273.039 128.55 272.859H128.92C137.21 272.639 137.24 272.649 139.99 264.579C140.111 263.703 139.976 262.81 139.6 262.009C139.47 261.589 138.94 261.289 138.6 260.939C130.66 252.829 130.67 252.359 138.79 244.219C142.79 240.219 146.7 236.219 150.71 232.299C154.15 228.939 157.31 228.979 160.82 232.299C166.95 238.059 167.13 238.109 174.51 234.029C174.873 233.774 175.178 233.445 175.405 233.064C175.633 232.684 175.777 232.259 175.83 231.819C176.01 229.589 175.83 227.329 175.93 225.079C176.1 221.289 178.28 218.959 182.03 218.899C189.89 218.779 197.75 218.779 205.61 218.899C209.53 218.959 211.68 221.329 211.81 225.379C211.9 227.999 211.81 230.619 211.81 233.379C214.58 234.559 217.25 235.829 220.03 236.799C220.51 236.909 221.009 236.915 221.492 236.816C221.975 236.718 222.431 236.518 222.83 236.229C224.234 234.999 225.569 233.694 226.83 232.319C230.47 228.799 233.49 228.809 237.15 232.429C242.21 237.442 247.237 242.486 252.23 247.559C255.66 251.059 255.99 254.559 252.23 257.559C247.63 261.269 246.36 264.989 249.85 269.989C250.345 270.904 250.74 271.87 251.03 272.869C253.83 272.869 256.57 272.779 259.3 272.869C263.3 273.019 265.55 275.239 265.6 279.239C265.7 286.992 265.7 294.746 265.6 302.499C265.55 306.499 263.23 308.679 259.25 308.829C256.51 308.929 253.78 308.829 251.12 308.829C250.84 309.369 250.69 309.699 250.51 310.019C247.32 315.529 246.51 320.369 252.77 324.749C255.88 326.929 255.46 330.749 252.65 333.619C247.317 339.079 241.937 344.469 236.51 349.789C233.56 352.669 229.78 352.949 227.33 349.699C223.33 344.439 219.19 343.869 213.95 347.259C213.242 347.64 212.507 347.968 211.75 348.239ZM147.8 328.579L156.21 337.789C157.51 336.209 158.59 334.669 159.9 333.359C163.22 330.009 165.06 329.949 169.2 331.919C173.444 333.977 177.809 335.777 182.27 337.309C185.98 338.559 187.96 340.649 187.81 344.639C187.73 346.639 187.81 348.559 187.81 350.639H199.81C199.81 348.309 199.81 346.209 199.81 344.109C199.81 340.629 201.59 338.669 204.81 337.479C209.57 335.689 214.31 333.819 218.89 331.639C222.17 330.079 224.89 330.229 227.33 332.909C228.74 334.469 229.96 336.199 231.23 337.799L240.61 328.329C239.02 327.009 237.34 325.719 235.79 324.329C233.26 321.989 233.01 319.329 234.46 316.189C236.64 311.459 238.6 306.609 240.46 301.739C241.67 298.539 243.68 296.809 247.14 296.869C249.23 296.869 251.31 296.869 253.53 296.869V284.869H248.13C243.13 284.869 241.79 283.619 240.13 278.789C238.734 274.681 237.064 270.672 235.13 266.789C232.76 262.029 232.79 260.379 236.68 256.579C237.944 255.49 239.281 254.488 240.68 253.579L231.42 244.309C230.04 245.839 228.66 247.429 227.21 248.959C224.84 251.459 222.21 251.709 219.07 250.259C214.35 248.089 209.51 246.129 204.65 244.259C201.47 243.039 199.74 241.019 199.81 237.549C199.81 235.459 199.81 233.369 199.81 231.129H187.81C187.81 233.449 187.81 235.549 187.81 237.649C187.81 241.129 186.04 243.089 182.81 244.299C177.95 246.152 173.147 248.152 168.4 250.299C165.4 251.649 162.81 251.529 160.56 249.119C159.05 247.489 157.74 245.669 156.39 243.989L147.01 253.409C148.62 254.749 150.29 256.039 151.84 257.479C154.36 259.819 154.59 262.479 153.15 265.619C150.99 270.369 149.02 275.209 147.15 280.079C145.93 283.269 143.91 284.999 140.45 284.939C138.36 284.939 136.27 284.939 134.05 284.939V296.939H139.05C144.63 296.939 145.87 297.939 147.5 303.359C148.269 305.991 149.218 308.567 150.34 311.069C154.87 320.789 154.95 320.769 147.8 328.579Z" fill="black"/>
<path d="M301.6 243.009C301.6 245.609 301.6 248.009 301.6 250.309C301.6 263.759 309.99 272.419 323.31 272.849C328.503 272.96 333.622 274.107 338.366 276.223C343.11 278.34 347.383 281.382 350.935 285.173C354.487 288.963 357.246 293.425 359.05 298.296C360.854 303.167 361.666 308.349 361.44 313.539C360.78 332.729 345.81 349.539 326.26 350.469C304.26 351.539 282.16 350.709 259.89 350.709V338.869H263.7C283.54 338.869 303.38 338.979 323.22 338.809C329.076 338.686 334.73 336.652 339.322 333.015C343.913 329.379 347.189 324.341 348.65 318.669C351.65 306.669 346.49 294.019 335.56 288.379C331.69 286.399 327.45 285.244 323.11 284.989C303.11 283.989 289.67 270.289 289.62 250.229C289.62 247.879 289.62 245.539 289.62 243.019L301.6 243.009Z" fill="black"/>
<path d="M295.75 50.5789V39.2089C318.47 37.3989 344.05 58.8589 343.26 86.5389H331.89C327.95 63.3689 317.26 52.6489 295.75 50.5789Z" fill="black"/>
<path d="M157.85 290.739C157.884 283.635 160.022 276.701 163.996 270.812C167.969 264.924 173.599 260.345 180.173 257.655C186.748 254.965 193.972 254.284 200.934 255.699C207.895 257.113 214.281 260.559 219.285 265.602C224.288 270.644 227.685 277.057 229.045 284.029C230.405 291.002 229.668 298.221 226.927 304.774C224.185 311.328 219.563 316.921 213.644 320.849C207.724 324.776 200.774 326.861 193.67 326.839C184.136 326.791 175.01 322.964 168.295 316.196C161.58 309.428 157.823 300.273 157.85 290.739ZM193.79 266.839C189.045 266.827 184.403 268.222 180.451 270.848C176.498 273.473 173.413 277.211 171.584 281.59C169.755 285.968 169.266 290.791 170.177 295.448C171.088 300.104 173.359 304.386 176.703 307.753C180.047 311.119 184.314 313.419 188.965 314.361C193.615 315.303 198.441 314.846 202.831 313.046C207.222 311.247 210.981 308.186 213.633 304.251C216.284 300.317 217.71 295.684 217.73 290.939C217.743 287.784 217.134 284.657 215.938 281.738C214.741 278.818 212.981 276.163 210.757 273.925C208.534 271.686 205.891 269.908 202.979 268.693C200.068 267.477 196.945 266.847 193.79 266.839Z" fill="black"/>
</svg>
