<svg width="400" height="400" viewBox="0 0 400 400" fill="none" xmlns="http://www.w3.org/2000/svg">
<path d="M320.177 183.966C315.007 192.896 310.327 200.966 305.667 209.026C300.357 218.196 294.807 227.236 289.847 236.586C284.698 246.278 278.027 255.08 270.087 262.656C262.837 269.656 257.807 270.506 248.827 265.126C248.737 266.316 248.597 267.346 248.587 268.376C248.587 279.226 248.587 290.076 248.587 300.936C248.587 306.336 246.487 308.456 241.147 308.466C228.174 308.466 215.2 308.466 202.227 308.466C197.487 308.466 194.757 306.256 194.727 302.526C194.697 298.796 197.437 296.526 202.137 296.526C205.487 296.526 208.837 296.526 212.417 296.526V236.806H165.027V296.456C168.567 296.456 172.137 296.456 175.717 296.456C180.057 296.526 182.717 298.926 182.717 302.556C182.717 306.186 180.037 308.336 175.877 308.406C172.297 308.476 168.717 308.406 164.787 308.406C164.787 313.976 164.787 319.186 164.787 324.406C164.787 330.336 162.787 332.406 157.027 332.406C138.194 332.406 119.357 332.406 100.517 332.406C94.9771 332.406 92.9671 330.316 92.9371 324.656C92.9371 319.426 92.9371 314.206 92.9371 308.466C87.4271 308.466 82.1171 308.466 76.8071 308.466C70.9671 308.466 68.9871 306.466 68.9871 300.576C68.9871 277.87 68.9871 255.163 68.9871 232.456C68.9871 226.606 70.9871 224.646 76.8771 224.646H152.607V212.646H100.447C95.6871 212.646 92.9671 210.456 92.9171 206.736C92.8671 203.016 95.6071 200.736 100.297 200.736C111.027 200.736 121.757 200.736 132.477 200.736H156.807C162.717 200.736 164.717 202.736 164.737 208.516C164.737 213.746 164.737 218.966 164.737 224.686H239.277C247.137 224.686 248.557 226.136 248.577 234.106C248.577 235.106 248.577 236.106 248.577 236.216C264.257 209.016 280.274 181.22 296.627 152.826H53.3571C40.1171 152.826 33.0071 159.916 33.0071 173.116C33.0071 211.29 33.0071 249.463 33.0071 287.636C33.0909 288.88 33.054 290.129 32.8971 291.366C32.2771 294.576 30.2571 296.516 26.9471 296.466C23.6371 296.416 21.6771 294.466 21.1171 291.216C20.9951 290.101 20.9684 288.977 21.0371 287.856C21.0371 249.556 21.0371 211.26 21.0371 172.966C21.0371 153.466 33.6071 140.856 53.0371 140.856C134.877 140.856 216.714 140.886 298.547 140.946C302.417 140.946 304.637 139.946 306.287 136.366C308.167 132.316 310.657 128.546 312.927 124.676C315.337 120.576 318.577 119.356 321.837 121.246C325.097 123.136 325.657 126.566 323.287 130.676C304.427 163.383 285.55 196.083 266.657 228.776C265.967 229.966 265.307 231.166 264.427 232.776L274.737 238.776L358.547 93.5163L348.207 87.5163C344.847 93.3463 341.557 99.0363 338.267 104.726C337.517 106.026 336.817 107.356 335.977 108.586C333.907 111.586 330.677 112.386 327.837 110.726C327.152 110.342 326.552 109.823 326.073 109.201C325.594 108.579 325.245 107.866 325.048 107.106C324.851 106.346 324.81 105.553 324.926 104.777C325.043 104 325.315 103.255 325.727 102.586C327.887 98.5163 330.257 94.5863 332.577 90.5863C337.447 82.1763 342.157 73.6663 347.277 65.4063C351.337 58.8463 357.617 56.1263 365.277 57.2463C372.737 58.3363 378.277 63.8863 379.987 71.3563C381.127 76.4063 379.757 80.9363 377.227 85.2963C366.34 104.05 355.484 122.82 344.657 141.606C343.977 142.786 343.347 143.986 342.747 145.086C342.887 145.486 342.897 145.806 343.057 145.916C352.917 153.006 356.697 162.716 356.517 174.706C356.187 196.416 356.427 218.116 356.417 239.826C356.478 241.071 356.438 242.318 356.297 243.556C356.083 244.991 355.346 246.296 354.227 247.22C353.108 248.143 351.687 248.619 350.237 248.556C348.848 248.547 347.509 248.035 346.467 247.117C345.425 246.198 344.75 244.933 344.567 243.556C344.407 242.316 344.366 241.064 344.447 239.816C344.447 217.15 344.447 194.446 344.447 171.706C344.552 168.626 343.873 165.57 342.474 162.824C341.074 160.078 339.001 157.732 336.447 156.006C334.627 159.126 332.877 162.076 331.217 165.076C330.982 165.631 330.916 166.244 331.027 166.836C331.487 170.216 332.437 173.596 332.447 176.976C332.534 233.736 332.554 290.496 332.507 347.256C332.507 354.886 330.967 356.416 323.317 356.416H54.1471C46.5071 356.416 44.9771 354.896 44.9771 347.246V173.566C44.9771 166.416 46.6271 164.756 53.7571 164.756H260.347C261.087 164.756 261.837 164.756 262.587 164.756C266.587 164.896 269.277 167.336 269.217 170.816C269.157 174.296 266.507 176.596 262.407 176.716C261.407 176.716 260.407 176.716 259.407 176.716H57.1771V344.226H320.177V183.966ZM105.177 236.776V296.196H152.617V236.776H105.177ZM81.2371 236.776V296.316H92.7171V236.766L81.2371 236.776ZM224.867 236.776V296.256H236.397V236.786L224.867 236.776ZM105.037 320.196H152.467V308.666H105.037V320.196ZM364.557 83.1163C366.037 79.6163 369.937 76.8763 367.627 72.6563C367.028 71.7095 366.229 70.9055 365.285 70.3008C364.342 69.6961 363.278 69.3055 362.167 69.1563C357.247 69.0563 356.427 73.7063 354.257 77.1563L364.557 83.1163ZM259.897 243.966C258.897 247.416 257.817 250.586 257.027 253.826C256.837 254.576 257.497 255.546 257.767 256.406C258.56 256.268 259.326 256.005 260.037 255.626C262.707 253.626 265.287 251.406 268.367 248.896L259.897 243.966Z" fill="black"/>
<path d="M188.627 380.336H53.5671C33.3771 380.336 21.0271 367.916 21.0271 347.636C21.0271 337.036 21.0271 326.436 21.0271 315.836C21.0271 311.186 23.3771 308.426 27.1171 308.506C30.8571 308.586 32.9671 311.256 32.9771 315.706C32.9771 326.926 32.9771 338.156 32.9771 349.376C32.9771 360.776 40.5771 368.376 51.9771 368.376C143.017 368.376 234.057 368.376 325.097 368.376C336.807 368.376 344.307 360.896 344.327 349.226C344.327 322.666 344.327 296.103 344.327 269.536C344.267 268.417 344.267 267.295 344.327 266.176C344.442 264.676 345.122 263.274 346.23 262.255C347.337 261.235 348.789 260.673 350.295 260.682C351.8 260.691 353.246 261.27 354.341 262.303C355.436 263.335 356.099 264.744 356.197 266.246C356.264 267.118 356.28 267.993 356.247 268.866C356.247 295.426 356.247 321.99 356.247 348.556C356.247 367.736 343.557 380.356 324.317 380.356C279.13 380.356 233.9 380.35 188.627 380.336Z" fill="black"/>
<path d="M92.8871 74.8563C92.8871 67.3863 92.9771 59.8563 92.8871 52.4263C92.7421 50.8743 93.0992 49.3167 93.9057 47.9828C94.7121 46.6489 95.9254 45.6091 97.3671 45.0163C108.547 39.5363 119.68 33.9763 130.767 28.3363C132.005 27.6286 133.406 27.2563 134.832 27.2563C136.258 27.2563 137.659 27.6286 138.897 28.3363C149.95 33.9563 161.077 39.5063 172.277 44.9863C173.72 45.5795 174.936 46.6163 175.75 47.9466C176.565 49.2769 176.935 50.8318 176.807 52.3863C176.72 67.453 176.72 82.5296 176.807 97.6163C176.927 99.1105 176.575 100.605 175.8 101.888C175.025 103.171 173.866 104.178 172.487 104.766C161.127 110.406 149.847 116.236 138.377 121.646C136.136 122.572 133.619 122.572 131.377 121.646C119.787 116.186 108.377 110.316 96.9071 104.646C95.6436 104.101 94.5803 103.177 93.8638 102.002C93.1474 100.827 92.8131 99.4592 92.9071 98.0863C92.9271 90.3163 92.8871 82.5863 92.8871 74.8563ZM104.887 60.6763C104.887 72.0463 104.887 82.8363 104.937 93.6763C104.957 94.0835 105.067 94.4811 105.259 94.8408C105.451 95.2004 105.72 95.5131 106.047 95.7563C113.437 99.5363 120.877 103.206 128.827 107.166C128.827 95.7863 128.827 85.0063 128.827 74.2263C128.806 73.8176 128.692 73.419 128.495 73.0605C128.297 72.702 128.021 72.3929 127.687 72.1563C120.277 68.3163 112.807 64.6363 104.867 60.6763H104.887ZM140.807 107.126C147.227 103.946 152.967 100.696 159.017 98.2163C163.597 96.3363 165.177 93.7663 164.907 88.7463C164.407 79.6163 164.767 70.4463 164.767 60.7463C158.997 63.6263 153.987 66.7463 148.557 68.7463C142.177 71.0263 140.107 74.7463 140.647 81.4463C141.277 89.7163 140.787 98.1663 140.787 107.126H140.807ZM112.327 50.9663C120.037 54.8263 126.987 58.3163 133.967 61.7563C134.524 61.9863 135.15 61.9863 135.707 61.7563C142.707 58.3163 149.637 54.8263 157.307 50.9763C149.627 47.1263 142.677 43.6163 135.697 40.1763C135.422 40.0602 135.126 40.0005 134.827 40.0005C134.528 40.0005 134.232 40.0602 133.957 40.1763C126.977 43.6363 120.027 47.1263 112.327 50.9663Z" fill="black"/>
<path d="M290.817 302.456C294.557 302.456 298.307 302.376 302.047 302.456C306.047 302.566 308.367 304.776 308.427 308.736C308.527 316.47 308.527 324.203 308.427 331.936C308.427 335.936 306.097 338.256 302.147 338.316C294.414 338.423 286.68 338.423 278.947 338.316C274.947 338.266 272.627 335.996 272.577 332.036C272.47 324.31 272.47 316.576 272.577 308.836C272.637 304.696 274.967 302.536 279.227 302.446C283.087 302.456 286.947 302.456 290.817 302.456ZM284.817 314.576V326.256H296.277V314.616L284.817 314.576Z" fill="black"/>
<path d="M209.927 320.456C218.287 320.456 226.647 320.456 235.007 320.456C239.767 320.456 242.497 322.626 242.557 326.336C242.617 330.046 239.857 332.416 235.197 332.416C218.11 332.416 201.02 332.416 183.927 332.416C179.457 332.416 176.817 330.166 176.757 326.536C176.697 322.906 179.437 320.476 184.107 320.456C192.717 320.456 201.327 320.456 209.927 320.456Z" fill="black"/>
<path d="M212.627 212.666C205.147 212.666 197.627 212.666 190.177 212.666C185.467 212.666 182.727 210.396 182.737 206.666C182.747 202.936 185.487 200.716 190.217 200.716C205.184 200.716 220.15 200.716 235.117 200.716C239.837 200.716 242.577 202.976 242.557 206.716C242.537 210.456 239.797 212.656 235.077 212.716C227.597 212.686 220.107 212.666 212.627 212.666Z" fill="black"/>
<path d="M74.9171 33.0063C74.9171 36.9563 74.9671 40.5363 74.9171 44.1163C74.8471 48.2463 72.5571 50.8663 69.0671 50.9463C65.5771 51.0263 63.0671 48.3263 62.9671 44.0063C62.9171 38.6463 62.9071 33.2963 62.9671 27.9363C63.0271 23.2863 65.2171 21.1063 69.8771 21.0563C75.3571 20.9863 80.8771 20.9763 86.3171 21.0563C90.3171 21.1163 92.9571 23.6563 92.8671 27.1663C92.7771 30.6763 90.2371 32.8863 86.3871 32.9763C82.5371 33.0663 78.9671 33.0063 74.9171 33.0063Z" fill="black"/>
<path d="M194.687 33.0063C190.607 33.0063 187.007 33.0663 183.417 33.0063C179.327 32.9163 176.737 30.5163 176.757 27.0063C176.777 23.4963 179.367 21.1163 183.477 21.0663C188.957 20.9963 194.477 20.9863 199.917 21.0663C204.337 21.1263 206.577 23.3597 206.637 27.7663C206.727 33.2463 206.717 38.7663 206.637 44.2063C206.577 48.3163 204.217 50.9263 200.717 50.9563C197.217 50.9863 194.807 48.3863 194.717 44.3063C194.717 42.4463 194.717 40.5763 194.717 38.7063L194.687 33.0063Z" fill="black"/>
<path d="M74.9171 116.856C78.9171 116.856 82.4871 116.796 86.0771 116.856C90.2071 116.926 92.7971 119.226 92.8571 122.746C92.9171 126.266 90.2871 128.746 86.2371 128.746C80.6271 128.826 75.0271 128.836 69.4171 128.746C65.2571 128.666 63.0371 126.376 62.9671 122.166C62.8871 116.553 62.8871 110.946 62.9671 105.346C63.0371 101.476 65.3871 98.9563 68.7671 98.8663C72.1471 98.7763 74.7671 101.376 74.8971 105.396C74.9871 109.046 74.9171 112.656 74.9171 116.856Z" fill="black"/>
<path d="M194.687 116.856C194.687 112.766 194.627 109.166 194.687 105.576C194.767 101.486 197.157 98.8963 200.687 98.9163C204.217 98.9363 206.567 101.536 206.627 105.636C206.7 111.123 206.7 116.606 206.627 122.086C206.567 126.5 204.334 128.74 199.927 128.806C194.447 128.886 188.927 128.876 183.477 128.806C179.367 128.806 176.767 126.386 176.747 122.876C176.727 119.366 179.307 116.956 183.387 116.876C186.997 116.796 190.597 116.856 194.687 116.856Z" fill="black"/>
<path d="M296.357 290.456C294.357 290.456 292.357 290.566 290.357 290.456C289.574 290.443 288.802 290.276 288.084 289.963C287.367 289.651 286.718 289.2 286.175 288.635C285.632 288.071 285.207 287.406 284.922 286.676C284.637 285.947 284.5 285.169 284.517 284.386C284.525 282.865 285.128 281.407 286.197 280.325C287.266 279.243 288.716 278.622 290.237 278.596C294.337 278.416 298.467 278.416 302.577 278.596C303.361 278.597 304.137 278.756 304.858 279.063C305.58 279.37 306.232 279.819 306.776 280.384C307.32 280.949 307.745 281.617 308.025 282.349C308.305 283.081 308.435 283.863 308.407 284.646C308.382 286.161 307.775 287.609 306.712 288.688C305.649 289.768 304.212 290.398 302.697 290.446C300.607 290.606 298.477 290.456 296.357 290.456Z" fill="black"/>
</svg>
